<?xml version="1.0" encoding="UTF-8" standalone="no"?>
<!-- Created with Inkscape (http://www.inkscape.org/) -->

<svg
   xmlns:dc="http://purl.org/dc/elements/1.1/"
   xmlns:cc="http://creativecommons.org/ns#"
   xmlns:rdf="http://www.w3.org/1999/02/22-rdf-syntax-ns#"
   xmlns:svg="http://www.w3.org/2000/svg"
   xmlns="http://www.w3.org/2000/svg"
   xmlns:sodipodi="http://sodipodi.sourceforge.net/DTD/sodipodi-0.dtd"
   xmlns:inkscape="http://www.inkscape.org/namespaces/inkscape"
   version="1.1"
   id="svg67"
   xml:space="preserve"
   width="203.29333"
   height="141.21333"
   viewBox="0 0 203.29333 141.21333"
   sodipodi:docname="moby.svg"
   inkscape:version="0.92.1 r15371"><metadata
     id="metadata73"><rdf:RDF><cc:Work
         rdf:about=""><dc:format>image/svg+xml</dc:format><dc:type
           rdf:resource="http://purl.org/dc/dcmitype/StillImage" /><dc:title></dc:title></cc:Work></rdf:RDF></metadata><defs
     id="defs71" /><sodipodi:namedview
     pagecolor="#ffffff"
     bordercolor="#666666"
     borderopacity="1"
     objecttolerance="10"
     gridtolerance="10"
     guidetolerance="10"
     inkscape:pageopacity="0"
     inkscape:pageshadow="2"
     inkscape:window-width="3200"
     inkscape:window-height="1691"
     id="namedview69"
     showgrid="false"
     inkscape:pagecheckerboard="true"
     inkscape:zoom="10.062789"
     inkscape:cx="78.541741"
     inkscape:cy="70.606667"
     inkscape:window-x="0"
     inkscape:window-y="55"
     inkscape:window-maximized="1"
     inkscape:current-layer="g75" /><g
     id="g75"
     inkscape:groupmode="layer"
     inkscape:label="ink_ext_XXXXXX"
     transform="matrix(1.3333333,0,0,-1.3333333,0,141.21333)"><g
       id="g77"
       transform="scale(0.1)"><path
         d="M 862.336,572.461 H 1019.77 V 715.574 H 862.336 Z m -186.047,0 H 833.715 V 715.574 H 676.289 Z m -186.047,0 H 647.668 V 715.574 H 490.242 Z m -186.051,0 H 461.617 V 715.574 H 304.191 Z m -186.05,0 H 275.566 V 715.574 H 118.141 Z m 186.05,171.738 h 157.426 v 143.11 H 304.191 Z m 186.051,0 h 157.426 v 143.11 H 490.242 Z m 186.047,0 h 157.426 v 143.11 H 676.289 Z m 0,171.735 H 833.715 V 1059.05 H 676.289 Z M 1492.87,655.906 c -34.38,23 -113.38,31.434 -174.17,19.969 -7.83,57.262 -39.74,106.906 -97.79,151.785 l -33.37,22.258 -22.27,-33.402 c -28.51,-42.996 -42.75,-102.559 -38.08,-159.676 2.1,-20.09 8.7,-56.027 29.37,-87.629 -20.66,-11.106 -61.5,-26.402 -115.33,-25.371 L 5.87891,543.84 3.84766,531.914 C -5.88281,474.512 -5.66797,295.387 110.629,157.711 199.031,53.0703 331.57,0 504.555,0 c 375,0 652.435,172.621 782.365,486.406 51.09,-1.019 161.09,-0.301 217.6,107.66 1.47,2.481 4.86,8.961 14.73,29.414 l 5.41,11.223 -31.79,21.203"
         style="fill:#066da5;fill-opacity:1;fill-rule:evenodd;stroke:none"
         id="path79"
         inkscape:connector-curvature="0" /></g><path
       style="fill:#ffffff;fill-opacity:1;stroke:#ffffff;stroke-width:0.09937602"
       d="m 15.825531,55.372322 v -9.490411 h 10.434483 10.434483 v 9.490411 9.49041 H 26.260014 15.825531 Z"
       id="path87"
       inkscape:connector-curvature="0"
       transform="matrix(0.75000002,0,0,-0.75000002,0,105.91)" /><path
       style="fill:#ffffff;fill-opacity:1;stroke:#ffffff;stroke-width:0.09937602"
       d="m 40.570162,55.372322 v -9.490411 h 10.484171 10.48417 v 9.490411 9.49041 H 51.054333 40.570162 Z"
       id="path89"
       inkscape:connector-curvature="0"
       transform="matrix(0.75000002,0,0,-0.75000002,0,105.91)" /><path
       style="fill:#ffffff;fill-opacity:1;stroke:#ffffff;stroke-width:0.09937602"
       d="m 40.570162,32.41646 v -9.490411 h 10.484171 10.48417 v 9.490411 9.49041 H 51.054333 40.570162 Z"
       id="path91"
       inkscape:connector-curvature="0"
       transform="matrix(0.75000002,0,0,-0.75000002,0,105.91)" /><path
       style="fill:#ffffff;fill-opacity:1;stroke:#ffffff;stroke-width:0.09937602"
       d="m 65.414168,32.41646 v -9.490411 h 10.434483 10.434483 v 9.490411 9.49041 H 75.848651 65.414168 Z"
       id="path93"
       inkscape:connector-curvature="0"
       transform="matrix(0.75000002,0,0,-0.75000002,0,105.91)" /><path
       style="fill:#ffffff;fill-opacity:1;stroke:#ffffff;stroke-width:0.09937602"
       d="m 65.414168,55.372322 v -9.490411 h 10.434483 10.434483 v 9.490411 9.49041 H 75.848651 65.414168 Z"
       id="path95"
       inkscape:connector-curvature="0"
       transform="matrix(0.75000002,0,0,-0.75000002,0,105.91)" /><path
       style="fill:#ffffff;fill-opacity:1;stroke:#ffffff;stroke-width:0.09937602"
       d="m 90.258175,55.372322 v -9.490411 h 10.434485 10.43448 v 9.490411 9.49041 H 100.69266 90.258175 Z"
       id="path97"
       inkscape:connector-curvature="0"
       transform="matrix(0.75000002,0,0,-0.75000002,0,105.91)" /><path
       style="fill:#ffffff;fill-opacity:1;stroke:#ffffff;stroke-width:0.09937602"
       d="m 90.258175,32.41646 v -9.490411 h 10.434485 10.43448 v 9.490411 9.49041 H 100.69266 90.258175 Z"
       id="path99"
       inkscape:connector-curvature="0"
       transform="matrix(0.75000002,0,0,-0.75000002,0,105.91)" /><path
       style="fill:#ffffff;fill-opacity:1;stroke:#ffffff;stroke-width:0.09937602"
       d="M 90.258175,9.5599737 V 0.06956322 h 10.434485 10.43448 V 9.5599737 19.050384 H 100.69266 90.258175 Z"
       id="path101"
       inkscape:connector-curvature="0"
       transform="matrix(0.75000002,0,0,-0.75000002,0,105.91)" /><path
       style="fill:#ffffff;fill-opacity:1;stroke:#ffffff;stroke-width:0.09937602"
       d="m 115.00281,55.372322 v -9.490411 h 10.48417 10.48417 v 9.490411 9.49041 h -10.48417 -10.48417 z"
       id="path103"
       inkscape:connector-curvature="0"
       transform="matrix(0.75000002,0,0,-0.75000002,0,105.91)" /><path
       style="fill:#ffffff;fill-opacity:1;stroke:#ffffff;stroke-width:0.099;stroke-miterlimit:4;stroke-dasharray:none;stroke-opacity:1"
       d="M 63.923528,141.11669 C 50.743316,140.70521 39.281171,137.83725 29.936927,132.61285 15.723554,124.6661 5.9358484,111.09184 1.9257215,93.76499 -0.06666633,85.156333 -0.51226151,75.520823 0.78104005,69.012502 L 0.83518258,68.74004 71.707418,68.709597 c 55.014192,-0.02363 71.061242,-0.05751 71.716932,-0.1514 4.10865,-0.588343 6.97418,-1.379932 9.82407,-2.713857 l 1.02929,-0.481772 -0.22514,-0.374138 c -2.25819,-3.752572 -3.52061,-7.941247 -3.77166,-12.514218 -0.33065,-6.022545 0.99102,-12.369393 3.65947,-17.573352 0.57559,-1.122495 4.29361,-6.906633 4.43956,-6.906633 0.19262,0 4.72548,3.155539 5.70823,3.973765 5.39748,4.493912 8.85616,9.214488 10.59491,14.460487 0.42869,1.293414 0.90225,3.237068 1.00967,4.143954 0.0315,0.26556 0.0843,0.498691 0.11753,0.518068 0.0332,0.01938 0.44045,-0.0261 0.90504,-0.101065 2.32403,-0.374996 3.74332,-0.474487 6.80726,-0.47718 3.00687,-0.0026 4.02697,0.06056 6.45944,0.400236 2.82069,0.393883 5.68433,1.175079 7.53314,2.05503 0.5026,0.239215 1.99661,1.156153 3.32001,2.037638 l 2.4062,1.602701 -1.05966,2.164759 c -1.81305,3.703844 -2.75554,5.342114 -4.12041,7.162217 -0.83109,1.108298 -2.76478,3.135757 -3.8558,4.04279 -3.39014,2.818426 -7.6575,4.748711 -12.52138,5.663879 -2.26647,0.426449 -3.81399,0.563965 -6.97742,0.620026 l -3.15145,0.05585 -0.46514,1.104778 c -1.51008,3.586687 -3.94481,8.49454 -5.93606,11.965747 -10.01336,17.455613 -24.00066,30.759933 -41.60263,39.571223 -11.796,5.90491 -25.139887,9.70153 -39.802375,11.32465 -6.24814,0.69166 -13.965202,1.01587 -19.825517,0.83291 z"
       id="path105"
       inkscape:connector-curvature="0"
       transform="matrix(0.75000002,0,0,-0.75000002,0,105.91)" /></g></svg>